<svg height="511pt" viewBox="0 -49 511.998 511" width="511pt" xmlns="http://www.w3.org/2000/svg"><path d="m429.429688 129.0625c-10.972657 0-21.390626 2.367188-30.78125 6.601562-4.589844 2.070313-9.785157-1.214843-9.785157-6.25v-21.867187c0-41.449219-33.601562-75.054687-75.054687-75.054687-27.6875 0-51.859375 15.003906-64.867188 37.316406-2.003906 3.4375-6.445312 4.445312-9.777344 2.269531-11.78125-7.695313-25.851562-12.175781-40.976562-12.175781-41.449219 0-75.054688 33.601562-75.054688 75.054687v19.855469c0 5.035156-5.195312 8.324219-9.785156 6.25-9.390625-4.234375-19.808594-6.597656-30.777344-6.597656-41.453124 0-75.054687 33.601562-75.054687 75.054687v18.457031c0 41.449219 33.601563 75.054688 75.054687 75.054688h346.859376c41.453124 0 75.054687-33.605469 75.054687-75.054688v-43.859374c0-41.449219-33.601563-75.054688-75.054687-75.054688zm0 0" fill="#6bdae8"/><path d="m432.339844 129.136719c8.046875 11.960937 12.75 26.359375 12.75 41.855469v43.855468c0 41.453125-33.605469 75.054688-75.058594 75.054688h-346.859375c-.976563 0-1.941406-.035156-2.910156-.074219 13.480469 20.027344 36.351562 33.203125 62.308593 33.203125h346.859376c41.453124 0 75.054687-33.605469 75.054687-75.054688v-43.859374c0-40.472657-32.042969-73.449219-72.144531-74.980469zm0 0" fill="#00c8de"/><path d="m198.339844 156.800781c22.601562 0 34.984375 14.1875 34.984375 22.601563 0 5.53125-3.003907 8.898437-8.894531 8.898437-11.421876 0-8.058594-15.628906-26.089844-15.628906-12.386719 0-22.605469 10.699219-22.605469 29.457031 0 15.75 6.253906 29.453125 23.324219 29.453125 15.511718 0 15.148437-16.589843 24.648437-16.589843 4.808594 0 9.617188 2.765624 9.617188 7.574218 0 12.503906-15.148438 24.886719-34.265625 24.886719-27.050782 0-43.042969-15.511719-43.042969-45.328125 0-24.40625 14.429687-45.324219 42.324219-45.324219zm0 0"/><path d="m285.507812 156.800781c28.371094 0 43.761719 18.875 43.761719 44.246094 0 24.40625-14.1875 46.40625-43.761719 46.40625-31.023437 0-43.765624-20.199219-43.765624-46.40625 0-25.371094 15.390624-44.246094 43.765624-44.246094zm0 74.78125c17.914063 0 24.042969-13.945312 24.042969-30.535156 0-16.59375-7.933593-28.375-24.042969-28.375-16.113281 0-24.046874 11.78125-24.046874 28.375 0 16.589844 5.527343 30.535156 24.046874 30.535156zm0 0"/><path d="m372.929688 264.28125c4.589843 0 6.503906 2.375 6.503906 6.429688 0 4.054687-1.914063 6.429687-6.503906 6.429687h-31.21875c-4.054688 0-6.503907-3.0625-6.503907-6.351563 0-4.746093 1.148438-7.195312 15.226563-16.988281l7.269531-5.050781c3.75-2.601562 5.125-4.742188 5.125-7.882812 0-3.75-2.523437-6.195313-6.65625-6.195313-8.722656 0-4.207031 10.632813-12.855469 10.632813-5.507812 0-7.496094-3.058594-7.496094-7.421876 0-7.34375 7.191407-15.148437 20.8125-15.148437 16.296876 0 21.960938 8.875 21.960938 17.367187 0 6.429688-3.214844 11.019532-10.023438 15.304688l-13.851562 8.722656v.152344zm0 0"/><path d="m441.265625 25.171875c0 9.472656-7.679687 17.152344-17.15625 17.152344-9.472656 0-17.15625-7.679688-17.15625-17.152344 0-9.476563 7.683594-17.15625 17.15625-17.15625 9.476563 0 17.15625 7.679687 17.15625 17.15625zm0 0" fill="#6bdae8"/><path d="m115.476562 393.90625c0 6.320312-5.121093 11.441406-11.441406 11.441406-6.316406 0-11.4375-5.121094-11.4375-11.441406 0-6.316406 5.121094-11.4375 11.4375-11.4375 6.320313 0 11.441406 5.121094 11.441406 11.4375zm0 0" fill="#00c8de"/><path d="m194.671875 367.453125c0 12.011719-9.738281 21.75-21.753906 21.75s-21.753907-9.738281-21.753907-21.75c0-12.015625 9.738282-21.753906 21.753907-21.753906s21.753906 9.738281 21.753906 21.753906zm0 0" fill="#6bdae8"/><path d="m428.640625 8.636719c1.089844 2.257812 1.71875 4.777343 1.71875 7.453125 0 9.476562-7.679687 17.15625-17.15625 17.15625-1.570313 0-3.082031-.230469-4.527344-.625 2.777344 5.738281 8.632813 9.703125 15.433594 9.703125 9.476563 0 17.15625-7.679688 17.15625-17.152344 0-7.90625-5.351563-14.542969-12.625-16.535156zm0 0" fill="#00c8de"/><path d="m180.625 347.109375c1.992188 3.285156 3.140625 7.140625 3.140625 11.261719 0 12.015625-9.742187 21.753906-21.753906 21.753906-2.714844 0-5.3125-.5-7.707031-1.410156 3.8125 6.289062 10.722656 10.492187 18.613281 10.492187 12.015625 0 21.753906-9.738281 21.753906-21.753906 0-9.300781-5.839844-17.234375-14.046875-20.34375zm0 0" fill="#00c8de"/><path d="m429.429688 330.546875h-36.558594c-4.148438 0-7.511719-3.367187-7.511719-7.515625 0-4.152344 3.363281-7.515625 7.511719-7.515625h36.558594c37.242187 0 67.542968-30.296875 67.542968-67.542969v-43.855468c0-37.242188-30.300781-67.539063-67.542968-67.539063-9.640626 0-18.957032 1.996094-27.691407 5.933594-4.507812 2.035156-9.675781 1.652343-13.816406-1.023438-4.117187-2.65625-6.570313-7.171875-6.570313-12.078125v-21.863281c0-37.242187-30.300781-67.539063-67.542968-67.539063-23.929688 0-46.296875 12.867188-58.375 33.585938-2.003906 3.441406-5.242188 5.84375-9.113282 6.757812-3.839843.910157-7.945312.183594-11.265624-1.984374-10.96875-7.164063-23.714844-10.953126-36.867188-10.953126-17.59375 0-34.253906 6.730469-46.90625 18.949219-2.988281 2.882813-7.746094 2.800781-10.628906-.183593-2.882813-2.988282-2.796875-7.746094.1875-10.628907 15.472656-14.9375 35.839844-23.164062 57.347656-23.164062 15.882812 0 31.285156 4.519531 44.589844 13.078125 14.832031-24.988282 41.988281-40.488282 71.03125-40.488282 45.53125 0 82.570312 37.042969 82.570312 82.570313v20.902344c10.449219-4.578125 21.5625-6.898438 33.050782-6.898438 45.527343 0 82.566406 37.039063 82.566406 82.566407v43.859374c.003906 45.527344-37.035156 82.570313-82.566406 82.570313zm0 0"/><path d="m357.199219 330.546875h-274.628907c-45.53125 0-82.570312-37.042969-82.570312-82.570313v-18.457031c0-45.53125 37.039062-82.570312 82.570312-82.570312 11.488282 0 22.601563 2.320312 33.050782 6.902343v-18.894531c0-8.796875 1.375-17.457031 4.09375-25.746093 1.292968-3.941407 5.535156-6.09375 9.480468-4.796876 3.945313 1.292969 6.09375 5.539063 4.800782 9.480469-2.222656 6.773438-3.347656 13.859375-3.347656 21.0625v19.855469c0 4.90625-2.457032 9.421875-6.570313 12.078125-4.140625 2.675781-9.308594 3.058594-13.820313 1.023437-8.730468-3.9375-18.046874-5.933593-27.6875-5.933593-37.242187 0-67.542968 30.296875-67.542968 67.539062v18.457031c0 37.242188 30.300781 67.539063 67.542968 67.539063h274.628907c4.148437 0 7.515625 3.367187 7.515625 7.515625s-3.367188 7.515625-7.515625 7.515625zm0 0"/><path d="m424.109375 49.839844c-13.601563 0-24.667969-11.066406-24.667969-24.667969 0-13.605469 11.066406-24.671875 24.667969-24.671875 13.605469 0 24.671875 11.066406 24.671875 24.671875 0 13.601563-11.066406 24.667969-24.671875 24.667969zm0-34.3125c-5.316406 0-9.640625 4.328125-9.640625 9.644531s4.324219 9.640625 9.640625 9.640625 9.644531-4.324219 9.644531-9.640625-4.328125-9.644531-9.644531-9.644531zm0 0"/><path d="m104.035156 412.859375c-10.449218 0-18.949218-8.5-18.949218-18.953125 0-10.449219 8.5-18.953125 18.949218-18.953125 10.453125 0 18.953125 8.503906 18.953125 18.953125 0 10.453125-8.5 18.953125-18.953125 18.953125zm0-22.875c-2.160156 0-3.921875 1.757813-3.921875 3.921875s1.757813 3.925781 3.921875 3.925781c2.164063 0 3.925782-1.761719 3.925782-3.925781s-1.761719-3.921875-3.925782-3.921875zm0 0"/><path d="m172.917969 396.71875c-16.136719 0-29.269531-13.128906-29.269531-29.265625s13.128906-29.269531 29.269531-29.269531 29.269531 13.128906 29.269531 29.269531c-.003906 16.136719-13.132812 29.265625-29.269531 29.265625zm0-43.503906c-7.851563 0-14.238281 6.386718-14.238281 14.238281s6.386718 14.238281 14.238281 14.238281c7.851562 0 14.238281-6.386718 14.238281-14.238281s-6.386719-14.238281-14.238281-14.238281zm0 0"/></svg>