<svg id="Capa_1" enable-background="new 0 0 512 512" height="512" viewBox="0 0 512 512" width="512" xmlns="http://www.w3.org/2000/svg"><g><g><path d="m295.211 265.135c.303 60.842-47.419 110.616-107.449 113.605v-69.52l26.675-25.488c8.125-7.763 8.167-20.725.093-28.541-7.487-7.05-19.337-7.435-27.047-.47l-60.031 54.229-10.79-10.79c-7.732-7.732-20.268-7.732-28 0-7.921 7.732-8.924 20.368-.978 28.557l39.768 40.983v11.19h-30.067c-45.3 0-82.83-36.269-83.101-81.568-.13-21.707 8.163-41.468 21.788-56.212-5.58-9.1-8.8-19.8-8.8-31.26 0-33.04 26.78-59.83 59.83-59.83 15.82 0 30.2 6.16 40.9 16.19 16.06-8.73 34.46-13.7 54.02-13.7 15.68 0 30.62 3.19 44.2 8.95 4.98 44.62 31.53 82.72 68.98 103.66.003.005.006.009.009.015z" fill="#89dd8e"/></g><g><circle cx="361.545" cy="146.173" fill="#c6d8d8" r="136.173"/></g><g><path d="m187.759 371.523v-62.31l26.675-25.484c8.125-7.762 8.168-20.722.096-28.539-7.487-7.048-19.335-7.432-27.044-.469l-60.035 54.228-10.788-10.788c-7.732-7.732-20.268-7.732-28 0-7.92 7.731-8.924 20.366-.979 28.555l39.767 40.989v76.27c0 14.181-5.009 27.906-14.143 38.753l-16.228 19.272h121.049l-16.228-19.272c-9.134-10.848-14.143-24.573-14.143-38.753v-72.452z" fill="#b96b57"/></g><g><path d="m490.172 76.685c-2.628-4.856-8.696-6.662-13.554-4.034-4.857 2.629-6.663 8.698-4.034 13.555 9.9 18.292 15.134 39.028 15.134 59.968 0 69.572-56.601 126.173-126.173 126.173-68.687 0-126.173-57.505-126.173-126.173 0-69.573 56.601-126.174 126.173-126.174 18.26 0 35.875 3.817 52.357 11.345 5.021 2.293 10.956.083 13.25-4.941 2.295-5.024.082-10.957-4.941-13.251-19.108-8.728-39.519-13.153-60.666-13.153-80.6 0-146.173 65.573-146.173 146.173 0 .303.01.603.011.905-10.796-3.034-21.964-4.568-33.362-4.568-18.201 0-36.256 4.059-52.633 11.789-12.122-9.251-26.894-14.278-42.287-14.278-38.504 0-69.83 31.326-69.83 69.83 0 10.423 2.317 20.657 6.748 29.982-12.899 16.35-19.862 36.524-19.737 57.549.304 50.458 42.068 91.508 93.103 91.508h20.066v55.084c0 11.806-4.188 23.282-11.792 32.313l-13.096 15.553h-33.414c-5.523 0-10 4.477-10 10s4.477 10.16 10 10.16h304.961c5.522 0 10-4.637 10-10.16s-4.478-10-10-10h-141.463l-13.096-15.553c-7.604-9.031-11.792-20.506-11.792-32.313v-56.091c28.053-3.568 53.906-16.625 73.603-37.365 18.375-19.348 29.784-43.72 32.945-69.851 17.588 7.514 36.936 11.679 57.239 11.679 80.6 0 146.173-65.573 146.173-146.173-.001-24.254-6.068-48.282-17.547-69.488zm-371.464 415.155 2.249-2.671c10.636-12.631 16.493-28.681 16.493-45.194v-65.055c0-.01.001-.019.001-.029v-11.191c0-2.6-1.013-5.098-2.823-6.964l-39.768-40.984c-4.094-4.22-3.302-10.723.873-14.521 3.734-3.734 10.125-3.732 13.857 0l10.788 10.788.001.001c3.766 3.766 9.822 3.921 13.774.35l38.61-34.878 21.424-19.352c4.437-4.009 11.59-2.965 14.792 1.952 2.542 3.907 1.902 9.198-1.455 12.405l-26.675 25.484c-1.975 1.887-3.092 4.499-3.092 7.23v134.761c0 16.513 5.857 32.563 16.493 45.194l2.249 2.671h-77.791zm79.054-124.14v-54.204l23.584-22.534c11.185-10.688 12.22-28.828 2.272-40.667-10.723-12.752-30.465-14.174-42.839-2.995l-12.903 11.656-40.076 36.2-4.066-4.066c-10.98-10.904-28.998-11.604-40.683-1.357-12.888 11.288-14.781 31.337-2.545 43.948l34.161 35.209h-17.282c-40.072 0-72.865-32.132-73.101-71.628-.11-18.364 6.685-35.896 19.133-49.365 3.039-3.289 3.521-8.197 1.181-12.015-4.792-7.814-7.325-16.816-7.325-26.032 0-27.477 22.354-49.83 49.83-49.83 12.687 0 24.783 4.79 34.061 13.486 3.146 2.949 7.828 3.55 11.615 1.49 15.027-8.168 32.055-12.486 49.244-12.486 12.083 0 23.853 2.051 35.065 6.104 6.493 41.998 31.814 79.913 68.002 102.166-2.369 49.252-39.083 89.604-87.328 96.92z"/><path d="m128.148 96.264 24.02 20.242c3.562 2.997 8.877 3.107 12.556.268l26.215-20.242c4.371-3.375 5.179-9.655 1.803-14.027-3.375-4.37-9.654-5.179-14.027-1.803l-10.095 7.795c.164-16.988 14.029-30.759 31.054-30.759h9.571c5.523 0 10-4.477 10-10s-4.477-10-10-10h-9.571c-27.681 0-50.272 22.144-51.026 49.647l-7.612-6.415c-4.223-3.559-10.532-3.021-14.091 1.203-3.559 4.223-3.02 10.532 1.203 14.091z"/><path d="m375.432 312.992c-5.522 0-10 4.477-10 10v9.571c0 17.026-13.772 30.891-30.759 31.054l7.795-10.096c3.375-4.371 2.568-10.651-1.804-14.026-4.37-3.375-10.651-2.568-14.026 1.804l-20.241 26.215c-2.835 3.67-2.734 9.005.269 12.556l20.242 24.02c1.978 2.347 4.805 3.556 7.651 3.556 2.275 0 4.563-.772 6.439-2.353 4.223-3.559 4.762-9.868 1.202-14.091l-6.415-7.612c27.502-.754 49.646-23.345 49.646-51.026v-9.571c.001-5.524-4.477-10.001-9.999-10.001z"/><path d="m297.374 123.392c3.168 0 6.221.931 8.828 2.693 4.574 3.092 10.792 1.889 13.885-2.687 3.092-4.576 1.889-10.792-2.688-13.884-5.927-4.005-12.852-6.122-20.025-6.122-19.743 0-35.805 16.062-35.805 35.804s16.062 35.804 35.805 35.804c9.184 0 17.979-3.782 23.917-10.857 3.55-4.231 2.997-10.539-1.234-14.088-4.229-3.549-10.539-2.998-14.088 1.234-2.153 2.567-5.294 3.711-8.595 3.711-8.715 0-15.805-7.089-15.805-15.804s7.091-15.804 15.805-15.804z"/><path d="m404.778 157.638c-1.064 5.419 2.467 10.675 7.886 11.739 5.421 1.068 10.675-2.467 11.739-7.886.757-3.85 6.897-3.076 6.463.81-.414 1.5-1.431 3.918-3.88 7.418-8.194 11.707-13.078 18.102-15.702 21.538-3.368 4.41-6.028 7.893-4.4 13.181.971 3.156 3.444 5.671 6.612 6.726 1.308.437 22.361.688 29.803.594 5.522-.069 9.942-4.603 9.873-10.125-.068-5.479-4.532-9.874-9.996-9.874-.043 0-.086 0-.129.001-2.384.03-4.844.055-7.254.075 2.15-2.964 4.662-6.48 7.578-10.648 5.597-7.997 9.7-17.416 6.154-27.087-3.323-9.06-12.221-15.268-21.87-15.268-11.118 0-20.738 7.909-22.877 18.806z"/><path d="m328.306 139.196c0 19.742 16.062 35.804 35.804 35.804 19.743 0 35.805-16.062 35.805-35.804 0-19.743-16.062-35.804-35.805-35.804-19.742 0-35.804 16.061-35.804 35.804zm51.608 0c0 8.714-7.09 15.804-15.805 15.804-8.714 0-15.804-7.089-15.804-15.804s7.09-15.804 15.804-15.804c8.716 0 15.805 7.089 15.805 15.804z"/><path d="m446.41 51.56c2.068 5.044 8.024 7.485 13.05 5.41 5.032-2.079 7.504-8.029 5.41-13.06s-8.02-7.496-13.061-5.41c-5.024 2.08-7.489 8.041-5.399 13.06z"/><path d="m19.83 493.69c-7.716-5.154-17.962 2.603-15.033 11.442 2.885 8.707 15.454 9.032 18.795.489 1.675-4.284.109-9.4-3.762-11.931z"/></g></g></svg>