<svg height="512pt" viewBox="0 0 512 512" width="512pt" xmlns="http://www.w3.org/2000/svg"><path d="m334.292969 249.820312h91.6875v47.902344h-94.261719zm0 0" fill="#49cb5c"/><path d="m76.234375 115.894531c-4.269531 0-7.726563 3.460938-7.726563 7.726563v50.480468c0 4.265626 3.457032 7.726563 7.726563 7.726563 4.265625 0 7.726563-3.460937 7.726563-7.726563v-50.480468c0-4.265625-3.460938-7.726563-7.726563-7.726563zm0 0" fill="#09a66d"/><path d="m40.753906 67.71875c-.234375-37.28125 34.019532-67.71875 34.019532-67.71875s34.628906 30.007812 34.863281 67.289062-34.019531 67.71875-34.019531 67.71875-34.628907-30.007812-34.863282-67.289062zm0 0" fill="#49cb5c"/><path d="m93.214844 80.144531c19.875-20.128906 54.585937-18.082031 54.585937-18.082031s2.480469 34.679688-17.398437 54.808594c-19.875 20.125-54.582032 18.078125-54.582032 18.078125s-2.480468-34.679688 17.394532-54.804688zm0 0" fill="#09a66d"/><path d="m128.054688 394.015625h-105.277344l25.902344-218.191406h53.472656zm0 0" fill="#f0f0f0"/><path d="m102.152344 175.824219h-42.238282l25.902344 218.191406h42.238282zm0 0" fill="#e8e8e8"/><path d="m102.152344 175.824219h-53.472656l-6.011719 50.640625h65.496093zm0 0" fill="#49cb5c"/><path d="m102.152344 175.824219h-42.238282l6.011719 50.640625h42.238281zm0 0" fill="#09a66d"/><path d="m417.222656 198.136719v94.433593h-73.140625v-94.433593h-94.777343v94.433593l-98.472657 100.96875h-150.832031v118.460938h512v-313.863281zm0 0" fill="#e8e8e8"/><path d="m310.085938 198.136719h33.996093v94.433593h-33.996093zm0 0" fill="#dbdbdb"/><path d="m478.003906 198.136719v313.863281h33.996094v-313.863281zm0 0" fill="#dbdbdb"/><g fill="#49cb5c"><path d="m273.722656 355.203125h32.980469v101.847656h-32.980469zm0 0"/><path d="m350.992188 355.203125h32.980468v101.847656h-32.980468zm0 0"/><path d="m428.257812 355.203125h32.980469v101.847656h-32.980469zm0 0"/><path d="m218.398438 449.675781h-175.128907c-4.269531 0-7.726562 3.457031-7.726562 7.726563 0 4.265625 3.457031 7.722656 7.726562 7.722656h175.128907c4.265624 0 7.726562-3.457031 7.726562-7.722656 0-4.269532-3.460938-7.726563-7.726562-7.726563zm0 0"/></g><path d="m512 69.730469c0-17.945313-14.199219-32.492188-31.714844-32.492188-.6875 0-1.371094.023438-2.050781.066407-3.894531.261718-7.402344-2.148438-8.648437-5.847657-6.175782-18.308593-23.136719-31.457031-43.101563-31.457031-25.191406 0-45.609375 20.921875-45.609375 46.730469v.027343c-12.621094.425782-23.367188 8.40625-28.082031 19.667969-2.328125 5.5625 1.839843 11.699219 7.871093 11.699219h142.84375c4.617188 0 8.480469-3.691406 8.492188-8.308594 0-.03125 0-.058594 0-.085937zm0 0" fill="#cbe6f7"/><path d="m333.777344 143.039062c0-17.945312-14.195313-32.492187-31.710938-32.492187-.691406 0-1.375.023437-2.054687.070313-3.894531.257812-7.398438-2.152344-8.648438-5.851563-6.175781-18.304687-23.136719-31.453125-43.101562-31.453125-25.191407 0-45.609375 20.921875-45.609375 46.726562v.03125c-12.621094.425782-23.367188 8.40625-28.082032 19.667969-2.328124 5.5625 1.839844 11.699219 7.871094 11.699219h142.84375c4.617188 0 8.480469-3.691406 8.492188-8.308594 0-.03125 0-.058594 0-.089844zm0 0" fill="#cbe6f7"/></svg>