<?xml version="1.0" encoding="UTF-8"?>
<svg xmlns="http://www.w3.org/2000/svg" viewBox="0 0 64 64" width="512" height="512"><g id="pollution-eco-ecology-world-poison"><circle cx="32" cy="39" r="22" style="fill:#57a4ff"/><path d="M54,39A22,22,0,0,1,18.29,56.21,22.006,22.006,0,0,0,40.71,18.79,22,22,0,0,1,54,39Z" style="fill:#006df0"/><path d="M57.5,20a3.5,3.5,0,0,1,0,7H52a3,3,0,0,1-6,0H44.5a3.5,3.5,0,0,1-1.1-6.82A3.383,3.383,0,0,1,44.5,20h1.6a5.468,5.468,0,0,1-.1-1,5,5,0,0,1,10,0,5.468,5.468,0,0,1-.1,1Z" style="fill:#e0e0e2"/><path d="M54,39c0,.74-.04,1.46-.1,2.18L46,34,34,35l-6,1-5-4,5-7-2-3,3.13-3.65A3.028,3.028,0,0,0,31,19a2.97,2.97,0,0,0,2.79-1.93h.01a21.738,21.738,0,0,1,9.6,3.11A3.5,3.5,0,0,0,44.5,27H46a3,3,0,0,0,5.46,1.72A21.94,21.94,0,0,1,54,39Z" style="fill:#009698"/><path d="M44,43l7.89,5.41A22.046,22.046,0,0,1,36,60.64v-.01L25,55l10-9Z" style="fill:#009698"/><path d="M54,39c0,.74-.04,1.46-.1,2.18l-4.92-4.47c.02-.23.02-.47.02-.71a21.394,21.394,0,0,0-.88-6.14A2.845,2.845,0,0,0,49,30a3,3,0,0,0,2.46-1.28A21.94,21.94,0,0,1,54,39Z" style="fill:#007579"/><path d="M51.89,48.41A22.046,22.046,0,0,1,36,60.64v-.01L25,55l.31-.28L31,57.63v.01A22.046,22.046,0,0,0,46.89,45.41l-3.31-2.27L44,43Z" style="fill:#007579"/><path d="M39.5,9a3.5,3.5,0,0,1,0,7H34a2.908,2.908,0,0,1-.2,1.07h-.01A2.97,2.97,0,0,1,31,19a3.028,3.028,0,0,1-1.87-.65A3.092,3.092,0,0,1,28,16H26.5a3.5,3.5,0,0,1,0-7h1.6A5.468,5.468,0,0,1,28,8,5,5,0,0,1,38,8a5.468,5.468,0,0,1-.1,1Z" style="fill:#e0e0e2"/><path d="M20.6,20.18A3.5,3.5,0,0,1,19.5,27H14a2.993,2.993,0,0,1-1.93,2.8l-.04-.03a.076.076,0,0,0-.02.05A2.787,2.787,0,0,1,11,30a3,3,0,0,1-3-3H6.5a3.5,3.5,0,0,1,0-7H8.1A5.468,5.468,0,0,1,8,19a5,5,0,0,1,10,0,5.468,5.468,0,0,1-.1,1h1.6A3.383,3.383,0,0,1,20.6,20.18Z" style="fill:#e0e0e2"/><path d="M61,23.5A3.5,3.5,0,0,1,57.5,27h-.85A3.28,3.28,0,0,0,57,25.5,3.5,3.5,0,0,0,53.5,22H51.9a5.468,5.468,0,0,0,.1-1,5,5,0,0,0-5-5,5,5,0,0,1,9,3,5.468,5.468,0,0,1-.1,1h1.6A3.5,3.5,0,0,1,61,23.5Z" style="fill:#acabb1"/><path d="M43,12.5A3.5,3.5,0,0,1,39.5,16h-.85A3.28,3.28,0,0,0,39,14.5,3.5,3.5,0,0,0,35.5,11H33.9a5.468,5.468,0,0,0,.1-1,5,5,0,0,0-5-5,5,5,0,0,1,9,3,5.468,5.468,0,0,1-.1,1h1.6A3.5,3.5,0,0,1,43,12.5Z" style="fill:#acabb1"/><path d="M23,23.5A3.5,3.5,0,0,1,19.5,27h-.85A3.28,3.28,0,0,0,19,25.5a3.5,3.5,0,0,0-2.4-3.32A3.383,3.383,0,0,0,15.5,22H13.9a5.468,5.468,0,0,0,.1-1,5,5,0,0,0-5-5,5,5,0,0,1,9,3,5.468,5.468,0,0,1-.1,1h1.6a3.383,3.383,0,0,1,1.1.18A3.5,3.5,0,0,1,23,23.5Z" style="fill:#acabb1"/><path d="M19,35l-5,3,3,7-2.78,6.96a21.994,21.994,0,0,1-2.21-22.14.142.142,0,0,0,.06-.02Z" style="fill:#009698"/><path d="M57.5,19H57a6,6,0,0,0-12,0h-.5a4.347,4.347,0,0,0-.96.11A22.4,22.4,0,0,0,38.7,17h.8a4.5,4.5,0,0,0,0-9H39A6,6,0,0,0,27,8h-.5a4.5,4.5,0,0,0-.87,8.91,23.039,23.039,0,0,0-5.16,2.2A4.437,4.437,0,0,0,19.5,19H19A6,6,0,0,0,7,19H6.5a4.5,4.5,0,0,0,0,9h.63a3.994,3.994,0,0,0,3.33,2.95A23,23,0,1,0,54.9,41.26c.07-.84.1-1.56.1-2.26a22.82,22.82,0,0,0-2.41-10.25,3.978,3.978,0,0,0,.28-.75H57.5a4.5,4.5,0,0,0,0-9ZM24,12.5A2.5,2.5,0,0,1,26.5,10h1.6a.971.971,0,0,0,.77-.37.99.99,0,0,0,.21-.83A4.255,4.255,0,0,1,29,8a4,4,0,0,1,8,0,4.255,4.255,0,0,1-.08.8.99.99,0,0,0,.21.83.971.971,0,0,0,.77.37h1.6a2.5,2.5,0,0,1,0,5H34a1,1,0,0,0-1,1,2,2,0,0,1-4,0,1,1,0,0,0-1-1H26.5A2.5,2.5,0,0,1,24,12.5ZM9,27a1,1,0,0,0-1-1H6.5a2.5,2.5,0,0,1,0-5H8.1a.971.971,0,0,0,.77-.37.99.99,0,0,0,.21-.83A4.255,4.255,0,0,1,9,19a4,4,0,0,1,8,0,4.255,4.255,0,0,1-.08.8.99.99,0,0,0,.21.83.971.971,0,0,0,.77.37h1.6a2.5,2.5,0,0,1,0,5H14a1,1,0,0,0-1,1,2,2,0,0,1-4,0Zm2,12a20.731,20.731,0,0,1,1.45-7.66l4.76,3.57-3.72,2.23a1,1,0,0,0-.41,1.25l2.84,6.62L14,49.82A20.84,20.84,0,0,1,11,39ZM36.16,59.59l-9.41-4.82,8.76-7.89,8.33-2.77,6.78,4.64A20.907,20.907,0,0,1,36.16,59.59ZM51.47,46.91l-6.9-4.74a1.036,1.036,0,0,0-.89-.12l-9,3a.963.963,0,0,0-.35.21l-10,9a1.009,1.009,0,0,0-.32.87.987.987,0,0,0,.53.76l7.99,4.09c-.18,0-.35.02-.53.02a21.083,21.083,0,0,1-16.64-8.2l2.57-6.43a1,1,0,0,0-.01-.76l-2.66-6.2,4.25-2.55a1.011,1.011,0,0,0,.49-.81.985.985,0,0,0-.4-.85l-5.81-4.36A3.955,3.955,0,0,0,14.87,28H19.5A4.507,4.507,0,0,0,24,23.5a4.461,4.461,0,0,0-1.42-3.26,20.463,20.463,0,0,1,5.14-1.78l-2.48,2.89a.992.992,0,0,0-.07,1.2l1.62,2.43-4.6,6.44a.991.991,0,0,0,.19,1.36l5,4a1,1,0,0,0,.78.21L34.08,36l11.57-.97,7.18,6.53A20.606,20.606,0,0,1,51.47,46.91ZM53,39v.01l-6.33-5.75a.977.977,0,0,0-.75-.26L33.84,34.01l-5.56.93-3.92-3.13,4.45-6.23a.977.977,0,0,0,.02-1.13l-1.58-2.37,2.1-2.45a3.949,3.949,0,0,0,5.02-1.49,20.971,20.971,0,0,1,7.05,2.1A4.461,4.461,0,0,0,40,23.5,4.507,4.507,0,0,0,44.5,28h.63a3.978,3.978,0,0,0,6.02,2.36A20.767,20.767,0,0,1,53,39Zm4.5-13H52a1,1,0,0,0-1,1,2,2,0,0,1-4,0,1,1,0,0,0-1-1H44.5a2.5,2.5,0,0,1,0-5h1.6a.971.971,0,0,0,.77-.37.99.99,0,0,0,.21-.83A4.255,4.255,0,0,1,47,19a4,4,0,0,1,8,0,4.255,4.255,0,0,1-.08.8.99.99,0,0,0,.21.83.971.971,0,0,0,.77.37h1.6a2.5,2.5,0,0,1,0,5Z"/></g></svg>
